<svg width="17" height="11" viewBox="0 0 17 11" fill="none" xmlns="http://www.w3.org/2000/svg">
<path fill-rule="evenodd" clip-rule="evenodd" d="M2 6.66675C2.55228 6.66675 3 7.11446 3 7.66675V9.66675C3 10.219 2.55228 10.6667 2 10.6667H1C0.447715 10.6667 0 10.219 0 9.66675V7.66675C0 7.11446 0.447715 6.66675 1 6.66675V6.66675H2ZM6.66663 4.66675C7.21891 4.66675 7.66663 5.11446 7.66663 5.66675V9.66675C7.66663 10.219 7.21891 10.6667 6.66663 10.6667H5.66663C5.11434 10.6667 4.66663 10.219 4.66663 9.66675V5.66675C4.66663 5.11446 5.11434 4.66675 5.66663 4.66675H6.66663ZM11.3334 2.33325C11.8857 2.33325 12.3334 2.78097 12.3334 3.33325V9.66659C12.3334 10.2189 11.8857 10.6666 11.3334 10.6666H10.3334C9.78109 10.6666 9.33337 10.2189 9.33337 9.66659V3.33325C9.33337 2.78097 9.78109 2.33325 10.3334 2.33325H11.3334ZM16 0C16.5523 0 17 0.447715 17 1V9.66667C17 10.219 16.5523 10.6667 16 10.6667H15C14.4477 10.6667 14 10.219 14 9.66667V1C14 0.447715 14.4477 0 15 0V0H16Z" fill="white"/>
</svg>
